<?xml version="1.0" encoding="utf-8"?>
<!-- Generator: Adobe Illustrator 16.0.3, SVG Export Plug-In . SVG Version: 6.00 Build 0)  -->
<!DOCTYPE svg PUBLIC "-//W3C//DTD SVG 1.1//EN" "http://www.w3.org/Graphics/SVG/1.1/DTD/svg11.dtd">
<svg version="1.1" id="Layer_1" xmlns="http://www.w3.org/2000/svg" xmlns:xlink="http://www.w3.org/1999/xlink" x="0px" y="0px"
	 width="116.779px" height="61.551px" viewBox="0 0 116.779 61.551" enable-background="new 0 0 116.779 61.551"
	 xml:space="preserve">
<g>
	<g>
		<g>
			<path d="M28.931,50.146c2.205-1.834,2.582-4.119,2.582-6.158V35.4H19.527v11.646c0,1.668-1.353,3.021-3.016,3.021
				c-1.664,0-2.9-1.353-2.9-3.021V14.04c0-1.66,1.236-3.012,2.9-3.012c1.663,0,3.016,1.352,3.016,3.012v11.723h11.975V13.606l0,0
				c0-6.721-4.393-12.248-15.09-12.266l0,0C5.43,1.34,1.277,6.897,1.275,13.617l0.002,34.461c0,6.66,5.285,11.701,12.049,11.701
				h3.713L28.931,50.146z"/>
			<polygon points="76.193,51.499 76.193,13.628 67.919,13.628 67.919,2.468 97.867,2.468 97.867,13.628 89.55,13.628 89.55,59.714 
				86.003,59.714 			"/>
			<polygon fill="#FFCD11" points="81.558,59.794 52.4,35.364 22.181,59.794 			"/>
			<path d="M60.72,2.534H44.015l-9.73,43.659l18.121-14.618L71.299,47.4L60.72,2.534 M49.173,28.771l3.232-16.5l3.207,16.5H49.173z"
				/>
		</g>
	</g>
	<path d="M104.511,8.286c0-3.17,2.573-5.748,5.782-5.748c3.191,0,5.75,2.578,5.75,5.748c0,3.211-2.559,5.783-5.75,5.783
		C107.085,14.069,104.511,11.497,104.511,8.286z M115.033,8.286c0-2.605-2.113-4.738-4.738-4.738c-2.641,0-4.77,2.133-4.77,4.738
		c0,2.643,2.129,4.775,4.77,4.775C112.919,13.062,115.033,10.929,115.033,8.286z M109.066,8.673v2.93h-1.058V4.821h2.193
		c1.242,0,2.527,0.336,2.527,1.871c0,0.783-0.472,1.398-1.375,1.582v0.029c0.936,0.184,1.041,0.598,1.146,1.334
		c0.097,0.646,0.17,1.352,0.4,1.965h-1.351c-0.077-0.383-0.184-0.811-0.229-1.211c-0.078-0.582-0.078-1.121-0.387-1.443
		c-0.263-0.275-0.611-0.246-0.982-0.275H109.066z M110.189,7.614c0.994-0.033,1.225-0.445,1.225-0.967
		c0-0.508-0.229-0.766-1.076-0.766h-1.271v1.732h1.122V7.614z"/>
</g>
</svg>
